<?xml version="1.0" encoding="utf-8"?>
<!-- Generator: Adobe Illustrator 26.3.0, SVG Export Plug-In . SVG Version: 6.00 Build 0)  -->
<svg version="1.1" id="Layer_1" xmlns="http://www.w3.org/2000/svg" xmlns:xlink="http://www.w3.org/1999/xlink" x="0px" y="0px"
	 viewBox="0 0 100 100" style="enable-background:new 0 0 100 100;" xml:space="preserve">
<style type="text/css">
	.st0{fill:#FFFFFF;}
</style>
<path class="st0" d="M41.3,75.3c-1.7,0-3.4,0-5,0c-6-0.1-12-0.3-18-0.4c-3.6-0.1-7.2,0.1-10.8,0c-0.8,0-2-0.7-2.1-1.3
	c-0.2-0.8,0.4-1.8,0.8-2.6c0.7-1.2,1.6-2.3,2.5-3.5c2.5-3.6,5.1-7,7.4-10.7c1.7-2.7,3.2-5.7,4.6-8.6c2.9-6,5.5-12.1,8.5-18
	c2-3.9,4.5-7.4,6.7-11.2c1.9-3.2,3.8-6.4,5.6-9.6c0.7-1.2,1.3-2.5,2.1-3.7c0.7-1.2,1.4-1.1,2.1,0c3,4.5,5.7,9.3,7.9,14.3
	c1.9,4.1,4.2,8,6.3,11.9c2.1,3.8,4.3,7.6,6.1,11.5c0.8,1.8,2,2.4,3.6,2c6.1-1.4,12.3-0.7,18.5-1.2c1.5-0.1,3,0.2,4.4,0.7
	c0.6,0.2,1.1,1.3,1.1,2c0.4,7.1,0.7,14.2,1.2,21.3c0.2,3.8,0.9,7.5,1,11.3c0.1,3.4-0.3,6.7-0.4,10.1c0,0.7,0.1,1.3,0.2,2
	c0.3,1.6-0.4,2.4-1.9,2.5c-2.6,0.1-5.2,0.3-7.8,0.5c-1.4,0.1-2.7,0.2-4.1,0.3c-2.8,0.2-5.6,0.5-8.4,0.6c-3.8,0.1-7.7,0.1-11.5,0.1
	c-2.1,0-4.2,0.1-6.3,0.1c-3-0.1-6-0.1-8.9-0.5c-1.7-0.2-3.3-1.1-4.8-2c-0.5-0.3-0.7-1.3-0.7-2.1c0.1-4.9,0.2-9.9,0.3-14.8
	C41.5,75.9,41.4,75.6,41.3,75.3z M44.7,7.6c-0.7,1.1-1.1,1.7-1.5,2.3c-3.2,5.3-6.4,10.6-9.4,16.1c-2.5,4.5-4.8,9.1-7,13.7
	c-1.2,2.3-2.1,4.8-3.2,7.1c-0.7,1.5-1.6,2.9-2.4,4.4c-1.1,2.1-2,4.5-3.3,6.5c-2.3,3.4-4.8,6.6-7.2,9.9c-1,1.4-1.8,3-2.9,4.7
	c0.7,0,1.1,0,1.4,0c2.8,0,5.7,0.1,8.5,0.1c7.3,0.1,14.7,0.3,22,0.4c1.2,0,1.7-0.3,1.6-1.6c-0.1-7.6-0.2-15.1-0.3-22.7
	c0-2.3,0.8-2.8,3-2.5c2.8,0.4,5.6,0.7,8.4,0.6c3-0.1,6.1-0.7,9.1-1.1c1.8-0.2,2.2-0.9,1.4-2.4c-1.5-2.9-2.9-5.7-4.4-8.6
	c-1.9-3.5-3.9-6.9-5.7-10.4C50.2,18.8,47.6,13.4,44.7,7.6z M43.7,75.5c0,4.9,0.1,9.7,0,14.6c0,1.6,0.5,2.3,2,2.4
	c4.3,0.2,8.6,0.6,13,0.6c5.1,0,10.1-0.1,15.2-0.3c5.9-0.3,11.8-0.9,17.7-1.3c1.1-0.1,1.4-0.6,1.4-1.6c0-2.5,0.3-5,0.2-7.5
	c-0.3-5.6-0.7-11.3-1-16.9c-0.3-5.5-0.7-11-0.9-16.5c0-1.3-0.6-1.6-1.6-1.6c-1.6-0.1-3.2-0.3-4.8-0.2c-5.4,0.2-10.9,0.6-16.6,0.9
	c0.8,1.8,1.5,3,2,4.4c1.3,3.5,2.4,7.1,3.8,10.5c1.3,3.1,2.9,6.1,4.3,9.2c0.8,1.9,0.6,2.5-1.4,2.7c-3.5,0.2-7.1,0.1-10.6,0.2
	c-4.8,0.2-9.7,0.4-14.5,0.6C49.2,75.6,46.7,75.5,43.7,75.5z M44.1,48.7c0,8.1,0,16.1,0,23.9c5.1,0,9.9,0,14.8,0
	c3.3,0,6.6-0.2,9.8-0.2c2.1,0,4.3,0,6.6,0c-0.5-1.4-0.9-2.6-1.4-3.7c-1.5-3.5-3.2-7-4.6-10.5c-1.2-3-2.1-6.1-3.5-9
	c-0.3-0.7-1.7-1.5-2.5-1.3c-4.9,1-9.8,1.4-14.7,1.3C47.2,49.1,45.7,48.9,44.1,48.7z"/>
</svg>
